<svg width="32" height="32" viewBox="0 0 32 32" fill="none" xmlns="http://www.w3.org/2000/svg">
<g clip-path="url(#clip0_447_13)">
<path d="M26 0H6C2.68629 0 0 2.68629 0 6V26C0 29.3137 2.68629 32 6 32H26C29.3137 32 32 29.3137 32 26V6C32 2.68629 29.3137 0 26 0Z" fill="black"/>
<path d="M28 6V25.9787L15.4447 19.4681C15.4447 19.4681 13.6041 18.4468 12.2894 18.4468C10.9747 18.4468 10.3831 19.1277 10.3831 19.1277C10.3831 19.1277 9.52855 19.0426 9.39708 16.8085C9.26561 14.5745 11.0733 14.7447 11.0733 14.7447C11.0733 14.7447 11.3363 14.8085 11.6321 14.9362C11.9279 15.0638 12.1908 15.1915 12.1908 15.1915L24.6475 21.5745V9.95745L19.1916 12.3191C19.1916 12.3191 18.8629 12.5532 17.6139 11.9149C16.365 11.2766 16.2664 11.1702 16.2664 11.1702L28 6Z" fill="white"/>
<path d="M4 26V6.02128L16.5553 12.5319C16.5553 12.5319 18.3959 13.5532 19.7106 13.5532C21.0253 13.5532 21.6169 12.8723 21.6169 12.8723C21.6169 12.8723 22.4714 12.9574 22.6029 15.1915C22.7344 17.4255 20.9267 17.2553 20.9267 17.2553C20.9267 17.2553 20.6637 17.1915 20.3679 17.0638C20.0721 16.9362 19.8092 16.8085 19.8092 16.8085L7.35247 10.4255V22.0426L12.8084 19.6809C12.8084 19.6809 13.1371 19.4468 14.3861 20.0851C15.635 20.7234 15.7336 20.8298 15.7336 20.8298L4 26Z" fill="white"/>
</g>
<defs>
<clipPath id="clip0_447_13">
<rect width="32" height="32" fill="white"/>
</clipPath>
</defs>
</svg>
